<svg width="346" height="26" fill="none" xmlns="http://www.w3.org/2000/svg">
  <path d="m13.508 20.24 5.815 3.693c.75.473 1.673-.231 1.453-1.097l-1.684-6.622a1.003 1.003 0 0 1 .334-1.015l5.215-4.35c.681-.566.335-1.708-.553-1.765l-6.808-.439a.957.957 0 0 1-.842-.623L13.9 1.63a.958.958 0 0 0-1.8 0L9.562 8.022a.958.958 0 0 1-.842.623l-6.808.439c-.888.057-1.234 1.2-.553 1.765l5.215 4.35a1.004 1.004 0 0 1 .334 1.015l-1.557 6.138c-.266 1.038.842 1.88 1.73 1.315l5.411-3.427a.946.946 0 0 1 1.016 0Zm29 0 5.815 3.693c.75.473 1.673-.231 1.453-1.097l-1.684-6.622a1.003 1.003 0 0 1 .334-1.015l5.215-4.35c.681-.566.335-1.708-.553-1.765l-6.808-.439a.957.957 0 0 1-.842-.623L42.9 1.63a.958.958 0 0 0-1.8 0l-2.538 6.392a.958.958 0 0 1-.842.623l-6.808.439c-.888.057-1.234 1.2-.553 1.765l5.215 4.35a1.004 1.004 0 0 1 .334 1.015l-1.557 6.138c-.266 1.038.842 1.88 1.73 1.315l5.411-3.427a.946.946 0 0 1 1.016 0Zm29 0 5.815 3.693c.75.473 1.673-.231 1.453-1.097l-1.684-6.622a1.003 1.003 0 0 1 .334-1.015l5.215-4.35c.681-.566.335-1.708-.553-1.765l-6.808-.439a.957.957 0 0 1-.842-.623L71.9 1.63a.958.958 0 0 0-1.8 0l-2.538 6.392a.958.958 0 0 1-.842.623l-6.808.439c-.888.057-1.234 1.2-.553 1.765l5.215 4.35a1.004 1.004 0 0 1 .334 1.015l-1.557 6.138c-.266 1.038.842 1.88 1.73 1.315l5.411-3.427a.946.946 0 0 1 1.016 0Zm29 0 5.815 3.693c.75.473 1.673-.231 1.453-1.097l-1.684-6.622a1.001 1.001 0 0 1 .334-1.015l5.215-4.35c.681-.566.335-1.708-.553-1.765l-6.808-.439a.955.955 0 0 1-.842-.623L100.9 1.63a.957.957 0 0 0-1.8 0l-2.538 6.392a.958.958 0 0 1-.842.623l-6.808.439c-.888.057-1.234 1.2-.553 1.765l5.215 4.35a1.004 1.004 0 0 1 .334 1.015l-1.557 6.138c-.266 1.038.842 1.88 1.73 1.315l5.411-3.427a.946.946 0 0 1 1.016 0Zm29 0 5.815 3.693c.75.473 1.673-.231 1.453-1.097l-1.684-6.622a1.001 1.001 0 0 1 .334-1.015l5.215-4.35c.681-.566.335-1.708-.553-1.765l-6.808-.439a.955.955 0 0 1-.842-.623L129.9 1.63a.957.957 0 0 0-1.8 0l-2.538 6.392a.958.958 0 0 1-.842.623l-6.808.439c-.888.057-1.234 1.2-.553 1.765l5.215 4.35a1.007 1.007 0 0 1 .334 1.015l-1.557 6.138c-.266 1.038.842 1.88 1.73 1.315l5.411-3.427a.947.947 0 0 1 1.016 0Z" fill="#F8D57E" stroke="#F8D57E" stroke-width="2" stroke-linecap="round" stroke-linejoin="round"/>
</svg>
