<svg width="16" height="16" fill="none" xmlns="http://www.w3.org/2000/svg">
  <path d="M7.3 15.3a.994.994 0 0 1-.288-.7.91.91 0 0 1 .263-.7l4.9-4.9H1a.968.968 0 0 1-.713-.288A.967.967 0 0 1 0 8a.97.97 0 0 1 .287-.713A.97.97 0 0 1 1 7h11.175l-4.9-4.9a.91.91 0 0 1-.263-.7A.994.994 0 0 1 7.3.7.948.948 0 0 1 8 .425.95.95 0 0 1 8.7.7l6.6 6.6c.1.083.171.187.213.312.041.125.062.255.062.388s-.02.258-.062.375a.883.883 0 0 1-.213.325l-6.6 6.6a.948.948 0 0 1-.7.275.948.948 0 0 1-.7-.275Z" fill="#7E5342"/>
</svg>
