<svg width="88" height="132" fill="none" xmlns="http://www.w3.org/2000/svg">
  <path d="M82.345 1.835C77.284-1.179 70.737.481 67.723 5.542c-3.014 5.062-1.355 11.608 3.707 14.623 5.061 3.014 11.608 1.354 14.622-3.707 3.015-5.062 1.355-11.608-3.707-14.623Zm-65.507 110c-5.061-3.014-11.608-1.354-14.622 3.707C-.8 120.604.86 127.15 5.923 130.165c5.061 3.014 11.608 1.354 14.622-3.707 3.014-5.062 1.355-11.608-3.707-14.623ZM75.17 9.977l-65.507 110 3.437 2.046 65.507-110-3.437-2.046Z" fill="#6DB0FF"/>
</svg>
