<svg width="16" height="10" viewBox="0 0 16 10" fill="none" xmlns="http://www.w3.org/2000/svg">
<path d="M8 7.10465L13.9377 1.16698C14.0483 1.05242 14.1807 0.961033 14.327 0.898167C14.4734 0.835301 14.6308 0.802211 14.79 0.800827C14.9493 0.799443 15.1073 0.829793 15.2547 0.890106C15.4021 0.950419 15.536 1.03949 15.6487 1.15212C15.7613 1.26474 15.8504 1.39867 15.9107 1.54609C15.971 1.69351 16.0013 1.85146 16 2.01073C15.9986 2.17001 15.9655 2.32741 15.9026 2.47375C15.8397 2.6201 15.7484 2.75246 15.6338 2.86312L8.84807 9.64885C8.62312 9.87372 8.31807 10.0001 8 10.0001C7.68193 10.0001 7.37688 9.87372 7.15193 9.64885L0.366202 2.86312C0.251635 2.75246 0.160252 2.6201 0.0973859 2.47375C0.0345198 2.32741 0.00142933 2.17001 4.52903e-05 2.01073C-0.00133875 1.85146 0.0290114 1.69351 0.0893247 1.54609C0.149638 1.39867 0.238707 1.26474 0.351334 1.15212C0.463961 1.03949 0.59789 0.950419 0.745308 0.890106C0.892726 0.829793 1.05068 0.799443 1.20995 0.800827C1.36922 0.802211 1.52663 0.835301 1.67297 0.898167C1.81932 0.961033 1.95168 1.05242 2.06234 1.16698L8 7.10465Z" fill="black"/>
</svg>
