<svg width="9" height="14" viewBox="0 0 9 14" fill="none" xmlns="http://www.w3.org/2000/svg">
<path d="M2.53816 6.98708L7.7432 12.1921C7.84363 12.2891 7.92374 12.4052 7.97885 12.5334C8.03396 12.6617 8.06297 12.7997 8.06418 12.9393C8.06539 13.079 8.03879 13.2174 7.98592 13.3467C7.93305 13.4759 7.85497 13.5933 7.75624 13.692C7.65751 13.7907 7.5401 13.8688 7.41087 13.9217C7.28164 13.9746 7.14318 14.0012 7.00356 14C6.86394 13.9987 6.72596 13.9697 6.59767 13.9146C6.46938 13.8595 6.35335 13.7794 6.25635 13.679L0.307872 7.73051C0.110742 7.53332 0 7.26591 0 6.98708C0 6.70825 0.110742 6.44084 0.307872 6.24365L6.25635 0.295175C6.45467 0.103632 6.72028 -0.00235606 6.99599 3.97504e-05C7.2717 0.00243556 7.53543 0.113023 7.73039 0.307985C7.92535 0.502946 8.03594 0.766681 8.03834 1.04239C8.04073 1.31809 7.93475 1.58371 7.7432 1.78203L2.53816 6.98708Z" fill="#555555"/>
</svg>
