<svg width="288" height="45" viewBox="0 0 288 45" fill="none" xmlns="http://www.w3.org/2000/svg">
<path d="M0.260681 10.0811C-0.246801 15.9503 4.09968 21.1195 9.96882 21.627C15.838 22.1345 21.0072 17.788 21.5147 11.9189C22.0222 6.04974 17.6757 0.880467 11.8066 0.372986C5.93743 -0.134496 0.768163 4.21198 0.260681 10.0811ZM266.261 33.0811C265.753 38.9503 270.1 44.1195 275.969 44.627C281.838 45.1345 287.007 40.788 287.515 34.9189C288.022 29.0497 283.676 23.8805 277.807 23.373C271.937 22.8655 266.768 27.212 266.261 33.0811ZM10.7154 12.9926L276.715 35.9926L277.06 32.0074L11.06 9.00743L10.7154 12.9926Z" fill="#6DB0FF"/>
</svg>
