<svg width="88" height="132" viewBox="0 0 88 132" fill="none" xmlns="http://www.w3.org/2000/svg">
<path d="M82.3454 1.83535C77.2839 -1.17888 70.7373 0.48076 67.723 5.54226C64.7088 10.6038 66.3685 17.1504 71.43 20.1647C76.4914 23.1789 83.0381 21.5192 86.0523 16.4577C89.0666 11.3962 87.4069 4.84958 82.3454 1.83535ZM16.8381 111.835C11.7766 108.821 5.22995 110.481 2.21572 115.542C-0.798508 120.604 0.861128 127.15 5.92263 130.165C10.9841 133.179 17.5308 131.519 20.545 126.458C23.5592 121.396 21.8996 114.85 16.8381 111.835ZM75.1693 9.97667L9.662 119.977L13.0987 122.023L78.6061 12.0233L75.1693 9.97667Z" fill="#6DB0FF"/>
</svg>
