<svg width="62" height="187" viewBox="0 0 62 187" fill="none" xmlns="http://www.w3.org/2000/svg">
<path d="M53.5131 0.633599C47.7879 -0.75433 42.0215 2.76173 40.6336 8.48693C39.2457 14.2121 42.7617 19.9785 48.4869 21.3664C54.2121 22.7543 59.9785 19.2383 61.3664 13.5131C62.7543 7.78786 59.2383 2.02153 53.5131 0.633599ZM13.5131 165.634C7.78786 164.246 2.02152 167.762 0.633594 173.487C-0.754334 179.212 2.76172 184.978 8.48693 186.366C14.2121 187.754 19.9785 184.238 21.3664 178.513C22.7543 172.788 19.2383 167.022 13.5131 165.634ZM49.0563 10.5288L9.0563 175.529L12.9437 176.471L52.9437 11.4712L49.0563 10.5288Z" fill="#6DB0FF"/>
</svg>
