<svg width="294" height="28" viewBox="0 0 294 28" fill="none" xmlns="http://www.w3.org/2000/svg">
<path d="M0.692471 11.7019C0.959862 17.5869 5.94733 22.1408 11.8323 21.8734C17.7173 21.6061 22.2712 16.6186 22.0038 10.7336C21.7364 4.84865 16.749 0.294708 10.864 0.5621C4.97902 0.829491 0.425079 5.81696 0.692471 11.7019ZM272.662 17.2551C272.93 23.14 277.917 27.694 283.802 27.4266C289.687 27.1592 294.241 22.1717 293.974 16.2868C293.706 10.4018 288.719 5.84786 282.834 6.11525C276.949 6.38264 272.395 11.3701 272.662 17.2551ZM11.3073 13.2174L283.277 18.7705L283.359 14.7713L11.389 9.21819L11.3073 13.2174Z" fill="#6DB0FF"/>
</svg>
